<?xml version="1.0" standalone="no"?>
<!DOCTYPE svg PUBLIC "-//W3C//DTD SVG 20010904//EN"
 "http://www.w3.org/TR/2001/REC-SVG-20010904/DTD/svg10.dtd">
<svg version="1.0" xmlns="http://www.w3.org/2000/svg"
 width="768.000000pt" height="768.000000pt" viewBox="0 0 768.000000 768.000000"
 preserveAspectRatio="xMidYMid meet">
<metadata>
Created by potrace 1.14, written by Peter Selinger 2001-2017
</metadata>
<g transform="translate(0.000000,768.000000) scale(0.100000,-0.100000)"
fill="#000000" stroke="none">
<path d="M2365 6441 c-121 -76 -285 -392 -390 -752 -42 -144 -56 -213 -89
-444 -45 -312 -51 -407 -51 -880 0 -398 2 -460 18 -534 10 -47 23 -93 28 -103
5 -10 6 -18 1 -18 -5 0 -30 -18 -55 -41 -98 -85 -292 -508 -369 -799 -26 -100
-31 -138 -35 -290 -6 -201 4 -264 61 -383 87 -183 97 -216 45 -161 -13 14 -46
42 -72 61 -47 35 -133 137 -212 253 -22 32 -66 85 -96 117 -31 32 -69 78 -85
103 -71 110 -157 201 -224 235 -16 8 -34 24 -40 35 -16 30 -56 53 -79 45 -11
-3 -25 -21 -31 -40 -12 -37 -23 -41 -66 -25 -52 20 -83 -9 -62 -56 15 -33 5
-40 -76 -47 -118 -11 -150 -47 -103 -114 14 -20 24 -40 22 -43 -3 -4 -28 -10
-56 -14 -72 -10 -103 -42 -94 -99 3 -23 6 -59 6 -79 -1 -48 28 -115 69 -161
17 -20 86 -69 153 -108 67 -40 145 -86 172 -104 28 -18 77 -50 110 -70 78 -49
168 -129 330 -291 95 -96 139 -133 162 -138 39 -9 42 -26 12 -67 -32 -45 -114
-225 -143 -313 -14 -44 -37 -139 -51 -212 -46 -243 -55 -341 -55 -631 l0 -273
1777 0 c1540 0 1778 2 1792 15 9 8 26 23 39 35 12 11 22 31 22 45 0 14 23 75
50 136 28 60 58 138 66 172 9 34 25 70 35 80 10 10 19 22 19 28 0 16 50 56
125 101 39 23 95 61 125 84 34 27 91 57 149 78 87 32 98 34 145 25 61 -12 182
-65 207 -90 23 -23 28 -23 57 -3 25 17 102 131 102 151 0 7 16 42 35 79 20 38
35 80 35 100 l0 34 38 -17 c20 -8 60 -26 87 -39 28 -12 61 -26 75 -30 28 -8
136 -78 163 -106 10 -10 24 -18 32 -18 22 0 47 31 40 49 -18 43 -16 78 4 112
11 19 21 46 21 61 0 15 4 29 8 32 16 10 114 -57 124 -85 9 -26 34 -43 54 -37
19 6 296 -186 373 -259 25 -24 48 -43 52 -43 25 0 43 19 63 64 13 28 50 81 84
118 67 74 86 125 61 163 -64 100 -81 125 -106 159 -60 83 -84 133 -114 234 -6
18 -21 39 -34 48 -13 9 -29 31 -35 49 -6 19 -47 73 -91 122 -44 48 -91 109
-104 135 -33 62 -130 128 -190 128 -32 0 -102 -63 -151 -137 -20 -31 -83 -111
-139 -179 -57 -67 -120 -148 -141 -178 -22 -31 -45 -56 -52 -56 -7 0 -45 16
-84 36 -98 49 -226 67 -288 39 -65 -29 -132 -111 -193 -237 l-55 -113 -112
-22 c-75 -15 -145 -37 -213 -68 -55 -25 -102 -44 -103 -42 -1 1 -8 52 -14 112
-6 61 -15 120 -20 132 -7 18 -5 23 11 28 10 4 64 43 120 88 55 45 119 95 142
111 89 62 375 281 410 314 44 41 80 119 73 156 -9 47 -9 47 -2 103 7 45 5 54
-13 72 -12 12 -35 24 -51 27 -25 6 -28 10 -24 34 8 39 -17 60 -71 60 -43 0
-44 1 -34 24 15 32 -4 65 -42 73 -16 3 -29 9 -29 14 0 18 -41 49 -64 49 -14 0
-76 -25 -139 -56 -88 -42 -136 -74 -206 -134 -110 -95 -187 -149 -304 -211
l-87 -47 22 36 c12 21 38 60 58 87 49 67 143 227 174 295 30 66 85 263 128
460 29 133 31 161 32 335 0 105 -3 240 -8 300 -8 96 -13 119 -42 176 -19 36
-34 74 -34 85 0 12 -11 43 -25 70 -20 39 -23 55 -16 79 5 17 12 59 15 95 3 36
12 119 21 185 8 66 20 185 26 265 8 112 20 183 54 315 24 93 46 188 50 209 3
21 14 50 22 63 12 19 13 29 5 48 -12 25 1 133 32 281 25 119 64 362 76 476 6
58 17 132 25 163 8 31 15 83 15 117 0 83 -43 160 -106 191 -40 19 -49 20 -92
8 -108 -28 -153 -58 -252 -163 -104 -111 -201 -251 -257 -368 -20 -41 -83
-171 -140 -289 -175 -358 -220 -487 -367 -1068 -6 -24 -14 -43 -19 -43 -4 0
-63 18 -130 39 -165 54 -215 61 -397 60 -85 0 -189 5 -230 12 -58 9 -94 9
-160 -1 -113 -16 -141 -25 -202 -66 -28 -19 -53 -33 -55 -30 -19 19 -35 199
-43 486 -9 333 -26 588 -59 899 -11 97 -22 212 -26 256 -3 44 -11 100 -16 125
-6 25 -17 84 -24 131 -28 181 -126 279 -220 220z"/>
<path d="M6168 5603 c-26 -17 -108 -132 -146 -208 -28 -56 -78 -221 -102 -339
-36 -170 -50 -295 -57 -496 -5 -179 -5 -197 12 -213 13 -13 26 -16 49 -11 57
12 83 32 192 150 60 65 163 172 230 238 66 67 160 171 209 231 49 61 109 133
134 160 74 84 85 129 50 201 -16 34 -32 49 -75 70 -50 24 -62 26 -138 22 -87
-6 -154 -29 -211 -72 l-31 -24 7 51 c21 139 22 173 5 205 -27 53 -77 67 -128
35z m53 -148 c-6 -36 -14 -107 -18 -158 -5 -80 -3 -95 11 -110 10 -9 21 -17
26 -17 5 0 37 24 70 54 78 69 135 97 214 103 73 6 125 -13 146 -53 12 -22 11
-28 -16 -64 -85 -116 -242 -299 -344 -401 -63 -64 -151 -156 -195 -205 -78
-88 -93 -103 -149 -153 l-29 -26 7 160 c7 158 31 352 61 482 47 205 92 316
172 426 47 64 61 52 44 -38z"/>
<path d="M6175 4091 c-47 -29 -72 -61 -108 -141 -74 -162 -107 -357 -87 -525
1 -5 -1 -19 -5 -31 -4 -13 -1 -27 10 -38 20 -19 39 -21 57 -3 7 7 38 25 68 39
73 34 286 220 332 289 63 96 108 189 108 225 0 24 -8 43 -25 59 -20 21 -34 25
-85 25 -33 0 -77 -7 -97 -15 -19 -8 -37 -15 -39 -15 -2 0 -4 18 -4 40 0 94
-56 134 -125 91z m30 -206 c-19 -46 -19 -50 1 -69 24 -24 40 -20 76 20 40 44
100 73 151 74 35 0 38 -2 31 -22 -8 -29 -68 -133 -101 -176 -25 -33 -243 -226
-276 -243 -13 -8 -19 -4 -29 16 -9 19 -7 51 6 145 25 181 67 302 125 363 l26
28 3 -49 c2 -29 -3 -66 -13 -87z"/>
</g>
</svg>
